<svg xmlns="http://www.w3.org/2000/svg" xmlns:xlink="http://www.w3.org/1999/xlink" viewBox="0 0 25.67 22.99"><defs><style>.cls-1{fill:none;}.cls-2{isolation:isolate;}.cls-3,.cls-5{fill:#34c88a;}.cls-4{clip-path:url(#clip-path);}.cls-5,.cls-6{mix-blend-mode:soft-light;}.cls-6{fill:#4abb87;}</style><clipPath id="clip-path" transform="translate(1.68)"><path class="cls-1" d="M8.77,1.35h0l-8.56,15a1.05,1.05,0,0,0,.38,1.44l6.71,3.8a1.06,1.06,0,0,0,1.57-.94v-2h0A1.55,1.55,0,0,0,7.31,17H7.19a1.53,1.53,0,0,1-1.55-1.55,1.57,1.57,0,0,1,.53-1.18h0L10,10.85h0a1.57,1.57,0,0,1,2.09,0h0l3.8,3.36h0a1.56,1.56,0,0,1,.52,1.17,1.6,1.6,0,0,1-1.56,1.58H14.7a1.61,1.61,0,0,0-1.58,1.6h0v2a1,1,0,0,0,1.56.91l6.69-3.93a1.07,1.07,0,0,0,.39-1.45L13.31,1.3h0A2.61,2.61,0,0,0,8.77,1.35Z"/></clipPath></defs><g class="cls-2"><g id="Слой_2" data-name="Слой 2"><g id="Слой_1-2" data-name="Слой 1"><path d="M11.46,10A34.53,34.53,0,0,1,3.27,8C1,7.12-.11,6.12,0,5.16L0,5,.64,5l0,.2c-.09.65,1,1.51,3,2.29A34,34,0,0,0,11.54,9.4l.1,0c5.05.64,9.81.33,11.31-.74a.82.82,0,0,0,.41-.56l0-.2L24,8l0,.21a1.48,1.48,0,0,1-.67,1h0c-1.66,1.18-6.37,1.52-11.73.84Z" transform="translate(1.68)"/><path d="M3.05,6.3l.45.29.4.27a4.11,4.11,0,0,1-.46.91,1.7,1.7,0,0,1-1.11.65,1.69,1.69,0,0,1-.48-1.2,4.13,4.13,0,0,1,.19-1l.48,0Z" transform="translate(1.68)"/><path class="cls-3" d="M8.77,1.35h0l-8.56,15a1.05,1.05,0,0,0,.38,1.44l6.71,3.8a1.06,1.06,0,0,0,1.57-.94v-2h0A1.55,1.55,0,0,0,7.31,17H7.19a1.53,1.53,0,0,1-1.55-1.55,1.57,1.57,0,0,1,.53-1.18h0L10,10.85h0a1.57,1.57,0,0,1,2.09,0h0l3.8,3.36h0a1.56,1.56,0,0,1,.52,1.17,1.6,1.6,0,0,1-1.56,1.58H14.7a1.61,1.61,0,0,0-1.58,1.6h0v2a1,1,0,0,0,1.56.91l6.69-3.93a1.07,1.07,0,0,0,.39-1.45L13.31,1.3h0A2.61,2.61,0,0,0,8.77,1.35Z" transform="translate(1.68)"/><g class="cls-4"><path class="cls-3" d="M8.14,5.08-1.43,21.66A3.39,3.39,0,0,0,.11,22h22a3.44,3.44,0,0,0,1.55-.36L14.11,5.08A3.45,3.45,0,0,0,8.14,5.08Z" transform="translate(1.68)"/><path class="cls-5" d="M8.08,5.12-1.68,22a3.49,3.49,0,0,0,1.57.37H22.36A3.57,3.57,0,0,0,23.94,22L14.17,5.12A3.52,3.52,0,0,0,8.08,5.12Z" transform="translate(1.68)"/><path class="cls-6" d="M7.68,8.83-.5,23H22.75L14.57,8.83A4,4,0,0,0,7.68,8.83Z" transform="translate(1.68)"/></g><path d="M0,5.28l0-.21a1.45,1.45,0,0,1,.67-1h0c1.65-1.18,6.37-1.52,11.72-.84l.11,0a34.65,34.65,0,0,1,8.19,2C23,6.16,24.09,7.15,24,8.11l0,.21-.6-.08,0-.2c.16-1.29-4.47-3.34-10.93-4.17h-.09C7.29,3.21,2.54,3.52,1,4.59a.84.84,0,0,0-.41.56l0,.2Z" transform="translate(1.68)"/><path d="M21.39,4.44s.19.11.6.39.52.35.52.35a5.14,5.14,0,0,1-.6,1.2,2.21,2.21,0,0,1-1.47.87,2.26,2.26,0,0,1-.65-1.59,5.8,5.8,0,0,1,.26-1.32l.63,0C21.17,4.41,21.39,4.44,21.39,4.44Z" transform="translate(1.68)"/></g></g></g></svg>